<?xml version="1.0" encoding="utf-8"?>
<!-- Generator: Adobe Illustrator 20.0.0, SVG Export Plug-In . SVG Version: 6.00 Build 0)  -->
<svg version="1.1" id="レイヤー_1" xmlns="http://www.w3.org/2000/svg" xmlns:xlink="http://www.w3.org/1999/xlink" x="0px"
	y="0px" viewBox="0 0 841.9 595.3" style="enable-background:new 0 0 841.9 595.3;" xml:space="preserve">
<style type="text/css">
	.st0{fill:#DCDDDD;}
	.st1{fill:none;stroke:#000000;stroke-width:5;stroke-linecap:round;stroke-linejoin:round;stroke-miterlimit:10;}
</style>
<path class="st0" d="M411.5,231c0,0-7,55,15,71.5s40.5,14,40.5,14s1-28.5-1-42.5c0,0,20.5,4,25-11.5l-29.5-9.5
	C461.5,253,444,230,411.5,231z"/>
<path class="st1" d="M384,235.5c0,0-24.5-12-25-32.5c0,0-18.5,25,7.5,44.5"/>
<path class="st1" d="M464.5,343.5c7.5-26,1.5-69.5,1.5-69.5c24.5,2,25-11.5,25-11.5l-29.5-9.5C440,228,412,231,412,231h-0.5
	c0,0-27-3-48.5,22l-29.5,9.5c0,0,0.5,13.5,25,11.5c0,0-6,43.5,1.5,69.5"/>
<path class="st1" d="M440.5,235.5c0,0,24.5-12,25-32.5c0,0,18.5,25-7.5,44.5"/>
<path class="st1" d="M412,327c0,0,28.5-3.5,52.5,19c0,0,2.5,37-52.5,37h0.5c-55,0-52.5-37-52.5-37c24-22.5,51.5-19,51.5-19H412z"/>
<circle cx="386.5" cy="291" r="6.5"/>
<circle cx="440.4" cy="291" r="6.5"/>
<circle cx="427.9" cy="358.2" r="5.3"/>
<circle cx="397" cy="358.2" r="5.3"/>
</svg>
